<?xml version="1.0" encoding="utf-8"?>
<!-- Generator: Adobe Illustrator 22.0.1, SVG Export Plug-In . SVG Version: 6.00 Build 0)  -->
<svg version="1.1" id="Capa_2" xmlns="http://www.w3.org/2000/svg" xmlns:xlink="http://www.w3.org/1999/xlink" x="0px" y="0px"
	 viewBox="0 0 191.7 190.9" style="enable-background:new 0 0 191.7 190.9;" xml:space="preserve">
<style type="text/css">
	.st0{fill:#A04545;}
</style>
<g>
	<circle class="st0" cx="97.2" cy="95" r="26.5"/>
	<path class="st0" d="M140.7,36c0,0,7-3,15-4c0,0-2,9-5,14S140.7,36,140.7,36z"/>
	<path class="st0" d="M50.7,36c0,0-7-3-15-4c0,0,2,9,5,14S50.7,36,50.7,36z"/>
	<path class="st0" d="M142.7,127c0,0,7-3,15-4c0,0-2,9-5,14S142.7,127,142.7,127z"/>
	<path class="st0" d="M52.7,127c0,0-7-3-15-4c0,0,2,9,5,14S52.7,127,52.7,127z"/>
	<path class="st0" d="M141.7,155c0,0,7,3,15,4c0,0-2-9-5-14S141.7,155,141.7,155z"/>
	<path class="st0" d="M51.7,155c0,0-7,3-15,4c0,0,2-9,5-14S51.7,155,51.7,155z"/>
	<path class="st0" d="M102.7,21V0c0,0,7,10,8,21S102.7,21,102.7,21z"/>
	<path class="st0" d="M191.7,95.5c0,0-8-7-23-11s0,19,0,19S182.7,101.5,191.7,95.5z"/>
	<path class="st0" d="M0,95.5c0,0,8-7,23-11s0,19,0,19S9,101.5,0,95.5z"/>
	<g>
		<path class="st0" d="M102.7,19.3v27.1c24.7,2.7,44,23.7,44,49.2c0,25.5-19.3,46.5-44,49.2v26.1v20.1c0,0,7-10,8-21
			c0-0.1,0-0.1,0-0.2c35.3-6.6,62-37.5,62-74.7C172.7,55,141.8,22.3,102.7,19.3z"/>
		<path class="st0" d="M91.7,144.7c-24.7-2.7-44-23.7-44-49.2c0-25.5,19.3-46.5,44-49.2V0.1c-0.7,1.1-6.6,10-7.8,20
			C48,26.2,20.7,57.4,20.7,95c0,37.6,27.3,68.7,63.1,74.9c0,0,0,0,0,0c0.9,10.3,7.2,19.8,7.9,20.9V144.7z"/>
	</g>
</g>
</svg>
