<?xml version="1.0" encoding="utf-8"?>
<!-- Generator: Adobe Illustrator 22.1.0, SVG Export Plug-In . SVG Version: 6.00 Build 0)  -->
<svg version="1.1" id="Capa_1" xmlns="http://www.w3.org/2000/svg" xmlns:xlink="http://www.w3.org/1999/xlink" x="0px" y="0px"
	 viewBox="0 0 102.9 99.6" style="enable-background:new 0 0 102.9 99.6;" xml:space="preserve">
<style type="text/css">
	.st0{fill:#FFFFFF;}
</style>
<g>
	<path class="st0" d="M102.9,4.2c-9.4,0.6-12.9,3-13.2,9.9c-0.1,3.4-0.5,9.7-0.5,23.5v16.2c0,15.3-1.8,27-10.5,36.1
		c-7,7.3-17.2,9.6-27.6,9.6c-8.7,0-18-1.8-24.6-6.9c-9-6.9-13.3-17.2-13.3-34.8V19.6C13.2,6.1,12,5.3,0,4.2V0h39.4v4.2
		c-12,0.8-13.2,2-13.2,15.4v37.5C26.2,79,36.6,91,54.6,91c21.3,0,28-13.2,28-38.1V37.6c0-13.8-0.4-19.5-0.8-23.5
		c-0.4-6.8-3.9-9.3-15-9.9V0h36V4.2z"/>
</g>
</svg>
