<?xml version="1.0" encoding="utf-8"?>
<!-- Generator: Adobe Illustrator 22.1.0, SVG Export Plug-In . SVG Version: 6.00 Build 0)  -->
<svg version="1.1" id="Capa_1" xmlns="http://www.w3.org/2000/svg" xmlns:xlink="http://www.w3.org/1999/xlink" x="0px" y="0px"
	 viewBox="0 0 141.7 99.1" style="enable-background:new 0 0 141.7 99.1;" xml:space="preserve">
<style type="text/css">
	.st0{fill:#FFFFFF;}
</style>
<g>
	<path class="st0" d="M141.7,4.2c-10.5,1.5-12,2.7-16,15c-5,15-16.9,53.1-25.2,79.9h-5.1c-7.8-23.4-17.8-52.3-25.6-74.5
		C61,50.4,52.2,76,44.4,99.1h-4.9c-7.5-25.8-16-53.8-24.1-80.1C11.4,6.9,9.8,5.3,0,4.2V0h37v4.2C25.9,5.4,25.6,7,27.7,14.5
		c5.8,20.2,11.8,40.2,18,61.3C54,52,63,25.9,70.6,1.4h4.8c8.4,25.5,16.8,49.2,25.5,74.7c6.3-19.9,14.8-46.6,18.1-59.7
		c2.3-8.7,1.1-10.6-11.7-12.1V0h34.3V4.2z"/>
</g>
</svg>
