<?xml version="1.0" encoding="utf-8"?>
<!-- Generator: Adobe Illustrator 22.1.0, SVG Export Plug-In . SVG Version: 6.00 Build 0)  -->
<svg version="1.1" id="Capa_1" xmlns="http://www.w3.org/2000/svg" xmlns:xlink="http://www.w3.org/1999/xlink" x="0px" y="0px"
	 viewBox="0 0 251.7 99.6" style="enable-background:new 0 0 251.7 99.6;" xml:space="preserve">
<style type="text/css">
	.st0{fill:#FFFFFF;}
</style>
<g>
	<path class="st0" d="M141.7,4.2c-10.5,1.5-12,2.7-16,15c-5,15-16.9,53.1-25.2,79.9h-5.1c-7.8-23.4-17.8-52.3-25.6-74.5
		C61,50.4,52.2,76,44.4,99.1h-4.9c-7.5-25.8-16-53.8-24.1-80.1C11.4,6.9,9.8,5.3,0,4.2V0h37v4.2C25.9,5.4,25.6,7,27.7,14.5
		c5.8,20.2,11.8,40.2,18,61.3C54,52,63,25.9,70.6,1.4h4.8c8.4,25.5,16.8,49.2,25.5,74.7c6.3-19.9,14.8-46.6,18.1-59.7
		c2.3-8.7,1.1-10.6-11.7-12.1V0h34.3V4.2z"/>
	<path class="st0" d="M251.7,4.2c-9.5,0.6-12.9,3-13.2,9.9c-0.1,3.4-0.4,9.7-0.4,23.5v16.2c0,15.3-1.8,27-10.5,36.1
		c-7,7.3-17.2,9.6-27.6,9.6c-8.7,0-18-1.8-24.6-6.9c-9-6.9-13.3-17.2-13.3-34.8V19.6c0-13.5-1.2-14.4-13.2-15.4V0h39.4v4.2
		c-12,0.8-13.2,2-13.2,15.4v37.5C175,79,185.4,91,203.4,91c21.3,0,28-13.2,28-38.1V37.6c0-13.8-0.5-19.5-0.8-23.5
		c-0.5-6.8-3.9-9.3-15-9.9V0h36V4.2z"/>
</g>
</svg>
